<svg xmlns="http://www.w3.org/2000/svg" xmlns:xlink="http://www.w3.org/1999/xlink" width="800" zoomAndPan="magnify" viewBox="0 0 600 599.999999" height="800" preserveAspectRatio="xMidYMid meet" version="1.0"><defs><clipPath id="4a7460f1c4"><path d="M 30.6875 160 L 167 160 L 167 340 L 30.6875 340 Z M 30.6875 160 " clip-rule="nonzero"/></clipPath><clipPath id="a18c853f29"><path d="M 437 161 L 574.4375 161 L 574.4375 340 L 437 340 Z M 437 161 " clip-rule="nonzero"/></clipPath></defs><g clip-path="url(#4a7460f1c4)"><path fill="#41602c" d="M 89.878906 161.007812 L 90.394531 160.992188 C 144.832031 160.46875 170.183594 225.777344 166.652344 272.730469 C 164.320312 303.753906 142.996094 339.140625 108.390625 339.386719 C 104.894531 339.398438 101.238281 339.492188 97.773438 339.046875 C 56.976562 333.808594 36.816406 294.304688 31.363281 257.621094 L 31.042969 255.109375 C 30.699219 251.316406 30.835938 247.402344 30.828125 243.589844 C 30.746094 205.535156 46.363281 164.535156 89.878906 161.007812 Z M 89.878906 161.007812 " fill-opacity="1" fill-rule="nonzero"/></g><g clip-path="url(#a18c853f29)"><path fill="#41602c" d="M 510.691406 161.367188 C 555.617188 157.546875 574.359375 204.894531 574.308594 243.023438 C 574.25 287.332031 551.210938 335.566406 502.390625 339.757812 L 501.863281 339.800781 C 488.296875 340.910156 474.914062 335.660156 464.671875 326.921875 C 411.714844 281.75 442.0625 165.664062 510.691406 161.367188 Z M 510.691406 161.367188 " fill-opacity="1" fill-rule="nonzero"/></g><path fill="#41602c" d="M 218.597656 32.683594 C 249.800781 31.007812 271.890625 57.238281 282.070312 84.183594 C 300.527344 133.035156 296.550781 231.023438 226.386719 230.1875 C 213.210938 230.03125 199.519531 222.800781 189.875 214.242188 C 137.414062 167.691406 137.105469 36.378906 218.597656 32.683594 Z M 218.597656 32.683594 " fill-opacity="1" fill-rule="nonzero"/><path fill="#41602c" d="M 380.046875 33.023438 C 479.96875 27.722656 470.949219 212.5625 385.359375 229.613281 C 333.8125 237.109375 314.695312 185.816406 314.0625 142.71875 C 313.414062 98.867188 329.230469 40.007812 380.046875 33.023438 Z M 380.046875 33.023438 " fill-opacity="1" fill-rule="nonzero"/><path fill="#41602c" d="M 297.316406 250.050781 C 306.6875 249.316406 316.628906 250.277344 325.722656 252.546875 C 370.25 263.664062 382.335938 291.25 402.074219 326.820312 C 415.085938 350.273438 431.59375 374.335938 454.425781 389.308594 C 464.328125 395.800781 475.261719 399.839844 483.425781 408.796875 C 496.847656 423.542969 497.179688 446.683594 492.8125 465.222656 C 479.886719 520.089844 423.261719 567.238281 365.808594 549.988281 C 359.105469 547.972656 352.945312 544.585938 346.507812 541.90625 C 334.128906 536.761719 321.066406 534.796875 307.753906 534.203125 C 291.433594 533.957031 275.234375 535.5 259.894531 541.472656 C 237.222656 550.296875 228.425781 555.644531 203.15625 552.4375 C 160.816406 547.070312 125.042969 509.558594 114.023438 469.566406 C 109.191406 452.023438 107.382812 429.949219 117.761719 414.128906 C 126.492188 400.808594 141.296875 396.09375 153.769531 387.308594 C 176.453125 371.328125 192.476562 347.539062 205.386719 323.414062 C 212.871094 309.4375 219.589844 294.628906 230.152344 282.617188 C 247.40625 263 271.359375 251.59375 297.316406 250.050781 Z M 297.316406 250.050781 " fill-opacity="1" fill-rule="nonzero"/></svg>