<svg xmlns="http://www.w3.org/2000/svg" xmlns:xlink="http://www.w3.org/1999/xlink" width="800" zoomAndPan="magnify" viewBox="0 0 600 599.999999" height="800" preserveAspectRatio="xMidYMid meet" version="1.0"><defs><clipPath id="89d4b8d36e"><path d="M 169 314 L 431 314 L 431 497.734375 L 169 497.734375 Z M 169 314 " clip-rule="nonzero"/></clipPath><clipPath id="921fc2e393"><path d="M 376 102.484375 L 528 102.484375 L 528 253 L 376 253 Z M 376 102.484375 " clip-rule="nonzero"/></clipPath><clipPath id="61f2e7763e"><path d="M 372.640625 239.953125 L 581.832031 239.953125 L 581.832031 424 L 372.640625 424 Z M 372.640625 239.953125 " clip-rule="nonzero"/></clipPath><clipPath id="ed01ce160a"><path d="M 72 102.484375 L 224 102.484375 L 224 253 L 72 253 Z M 72 102.484375 " clip-rule="nonzero"/></clipPath><clipPath id="a6957677b7"><path d="M 17.832031 239 L 228 239 L 228 424 L 17.832031 424 Z M 17.832031 239 " clip-rule="nonzero"/></clipPath></defs><path fill="#41602c" d="M 300.144531 176.613281 C 258.671875 176.613281 224.9375 210.351562 224.9375 251.820312 C 224.9375 293.292969 258.671875 327.03125 300.144531 327.03125 C 341.613281 327.03125 375.355469 293.292969 375.355469 251.820312 C 375.355469 210.351562 341.613281 176.613281 300.144531 176.613281 " fill-opacity="1" fill-rule="nonzero"/><g clip-path="url(#89d4b8d36e)"><path fill="#41602c" d="M 363.746094 314.089844 C 347.570312 330.613281 325.039062 340.894531 300.144531 340.894531 C 275.25 340.894531 252.71875 330.613281 236.539062 314.089844 C 196.855469 336.417969 169.976562 378.917969 169.976562 427.601562 L 169.976562 479.628906 C 179.6875 484.253906 214.980469 497.511719 300.144531 497.511719 C 385.199219 497.511719 420.511719 484.285156 430.316406 479.621094 L 430.316406 427.601562 C 430.316406 378.917969 403.433594 336.417969 363.746094 314.089844 " fill-opacity="1" fill-rule="nonzero"/></g><g clip-path="url(#921fc2e393)"><path fill="#41602c" d="M 451.878906 102.484375 C 410.40625 102.484375 376.667969 136.21875 376.667969 177.6875 C 376.667969 219.160156 410.40625 252.898438 451.878906 252.898438 C 493.347656 252.898438 527.089844 219.160156 527.089844 177.6875 C 527.089844 136.21875 493.347656 102.484375 451.878906 102.484375 " fill-opacity="1" fill-rule="nonzero"/></g><g clip-path="url(#61f2e7763e)"><path fill="#41602c" d="M 515.480469 239.957031 C 499.304688 256.480469 476.773438 266.761719 451.878906 266.761719 C 427.054688 266.761719 404.585938 256.539062 388.417969 240.101562 C 388.925781 243.941406 389.214844 247.847656 389.214844 251.820312 C 389.214844 270.992188 383.101562 288.746094 372.753906 303.292969 C 414.285156 327.640625 442.609375 372.175781 444.101562 423.339844 C 446.648438 423.367188 449.238281 423.378906 451.878906 423.378906 C 536.933594 423.378906 572.25 410.152344 582.050781 405.492188 L 582.050781 353.46875 C 582.050781 304.785156 555.167969 262.285156 515.480469 239.957031 " fill-opacity="1" fill-rule="nonzero"/></g><g clip-path="url(#ed01ce160a)"><path fill="#41602c" d="M 148.078125 102.484375 C 106.605469 102.484375 72.867188 136.21875 72.867188 177.6875 C 72.867188 219.160156 106.605469 252.898438 148.078125 252.898438 C 189.550781 252.898438 223.289062 219.160156 223.289062 177.6875 C 223.289062 136.21875 189.550781 102.484375 148.078125 102.484375 " fill-opacity="1" fill-rule="nonzero"/></g><g clip-path="url(#a6957677b7)"><path fill="#41602c" d="M 227.535156 303.292969 C 217.1875 288.746094 211.074219 270.992188 211.074219 251.820312 C 211.074219 247.835938 211.363281 243.921875 211.875 240.074219 C 211.808594 240.035156 211.746094 239.996094 211.679688 239.957031 C 195.503906 256.480469 172.972656 266.761719 148.078125 266.761719 C 123.183594 266.761719 100.652344 256.480469 84.476562 239.957031 C 44.792969 262.285156 17.90625 304.785156 17.90625 353.46875 L 17.90625 405.496094 C 27.621094 410.121094 62.917969 423.378906 148.078125 423.378906 C 150.847656 423.378906 153.554688 423.363281 156.222656 423.335938 C 157.722656 372.171875 186.007812 327.640625 227.535156 303.292969 " fill-opacity="1" fill-rule="nonzero"/></g></svg>