<svg xmlns="http://www.w3.org/2000/svg" xmlns:xlink="http://www.w3.org/1999/xlink" width="800" zoomAndPan="magnify" viewBox="0 0 600 599.999999" height="800" preserveAspectRatio="xMidYMid meet" version="1.0"><path fill="#efe372" d="M 246.390625 556.675781 C 246.390625 556.675781 289.710938 599.972656 290.707031 449.179688 C 275.816406 446.453125 260.710938 441.984375 245.667969 435.839844 C 230.789062 451.75 202.9375 493.910156 246.390625 556.675781 " fill-opacity="1" fill-rule="nonzero"/><path fill="#efe372" d="M 103.53125 284.726562 C 87.910156 293.714844 67.335938 306.609375 55.75 318.191406 C 35.367188 338.574219 37.027344 393.410156 56.136719 414.296875 C 70.167969 429.625 99.351562 367.578125 119.792969 329.523438 C 111.792969 314.429688 106.640625 299.28125 103.53125 284.726562 " fill-opacity="1" fill-rule="nonzero"/><path fill="#efe372" d="M 330.171875 43.769531 C 318.589844 55.355469 305.695312 75.933594 296.707031 91.546875 C 311.261719 94.660156 326.414062 99.8125 341.503906 107.8125 C 379.558594 87.375 441.609375 58.183594 426.277344 44.160156 C 405.398438 25.046875 350.554688 23.386719 330.171875 43.769531 " fill-opacity="1" fill-rule="nonzero"/><path fill="#efe372" d="M 139.011719 127.03125 C 148.125 117.910156 163.386719 108.355469 182.828125 100.894531 C 179.460938 83.335938 172.347656 65.535156 158.507812 51.699219 C 126.03125 19.214844 87.101562 39.085938 72.019531 49.003906 C 67.617188 51.894531 63.878906 55.636719 60.984375 60.035156 C 51.066406 75.117188 31.195312 114.050781 63.679688 146.527344 C 77.515625 160.367188 95.320312 167.480469 112.875 170.847656 C 120.335938 151.402344 129.894531 136.144531 139.011719 127.03125 " fill-opacity="1" fill-rule="nonzero"/><path fill="#efe372" d="M 214.574219 110.464844 C 186.527344 116.78125 163.691406 128.625 152.148438 140.164062 C 140.609375 151.703125 128.765625 174.546875 122.445312 202.597656 L 181.253906 223.757812 L 235.738281 169.273438 L 214.574219 110.464844 " fill-opacity="1" fill-rule="nonzero"/><path fill="#efe372" d="M 330.082031 184.265625 L 366.21875 148.136719 C 325.386719 110.265625 275.410156 102.042969 233.175781 107.257812 L 253.5 163.75 L 330.082031 184.265625 " fill-opacity="1" fill-rule="nonzero"/><path fill="#efe372" d="M 288.871094 329.160156 L 341.140625 276.886719 L 322.003906 205.488281 L 250.605469 186.351562 L 198.332031 238.621094 L 217.464844 310.027344 L 288.871094 329.160156 " fill-opacity="1" fill-rule="nonzero"/><path fill="#efe372" d="M 209.386719 331.246094 L 173.308594 367.316406 C 214.714844 405.5 262.300781 427.914062 306.332031 432.910156 L 285.1875 351.554688 L 209.386719 331.246094 " fill-opacity="1" fill-rule="nonzero"/><path fill="#efe372" d="M 196.246094 318.105469 L 175.730469 241.519531 L 119.238281 221.199219 C 114.023438 263.4375 122.253906 313.40625 160.117188 354.238281 L 196.246094 318.105469 " fill-opacity="1" fill-rule="nonzero"/><path fill="#efe372" d="M 343.21875 197.40625 L 363.535156 273.207031 L 444.890625 294.355469 C 439.894531 250.328125 417.484375 202.734375 379.300781 161.328125 L 343.21875 197.40625 " fill-opacity="1" fill-rule="nonzero"/><path fill="#efe372" d="M 303.15625 346.804688 L 325.808594 433.945312 C 359.242188 433.75 389.609375 422.800781 412.199219 400.21875 C 434.785156 377.628906 445.730469 347.261719 445.925781 313.828125 L 358.789062 291.175781 L 303.15625 346.804688 " fill-opacity="1" fill-rule="nonzero"/><path fill="#efe372" d="M 447.820312 233.6875 C 453.96875 248.730469 458.433594 263.835938 461.160156 278.726562 C 611.953125 277.730469 568.65625 234.410156 568.65625 234.410156 C 505.890625 190.957031 463.730469 218.804688 447.820312 233.6875 " fill-opacity="1" fill-rule="nonzero"/></svg>