<svg xmlns="http://www.w3.org/2000/svg" xmlns:xlink="http://www.w3.org/1999/xlink" width="800" zoomAndPan="magnify" viewBox="0 0 600 599.999999" height="800" preserveAspectRatio="xMidYMid meet" version="1.0"><defs><clipPath id="50d7f95c52"><path d="M 307 91.085938 L 596 91.085938 L 596 508.835938 L 307 508.835938 Z M 307 91.085938 " clip-rule="nonzero"/></clipPath><clipPath id="0fe2026378"><path d="M 4 91.085938 L 315 91.085938 L 315 508.835938 L 4 508.835938 Z M 4 91.085938 " clip-rule="nonzero"/></clipPath></defs><g clip-path="url(#50d7f95c52)"><path fill="#41602c" d="M 595.582031 91.457031 C 595.582031 91.457031 379.429688 105.734375 307.710938 268.394531 C 323.335938 306.210938 330.46875 348.558594 329.097656 395.1875 C 340.335938 365.789062 356.300781 333.683594 378.949219 302.988281 C 398.109375 277.023438 422.042969 252.070312 451.949219 230.632812 C 451.949219 230.632812 415.847656 258.4375 380.464844 328.0625 C 358.601562 371.085938 337.019531 430.066406 324.402344 508.363281 C 355.007812 464.402344 473.15625 460.148438 543.433594 372.621094 C 617.617188 280.238281 567.503906 179.417969 595.582031 91.457031 " fill-opacity="1" fill-rule="nonzero"/></g><g clip-path="url(#0fe2026378)"><path fill="#41602c" d="M 297.058594 506.257812 C 297.058594 506.257812 290.886719 397.863281 220.875 302.988281 C 201.714844 277.023438 177.78125 252.070312 147.875 230.632812 C 147.875 230.632812 183.976562 258.4375 219.359375 328.0625 C 241.222656 371.085938 262.808594 430.066406 275.421875 508.363281 C 244.816406 464.402344 126.667969 460.148438 56.390625 372.621094 C -17.792969 280.238281 32.320312 179.417969 4.242188 91.457031 C 4.242188 91.457031 402.859375 117.769531 297.058594 506.257812 " fill-opacity="1" fill-rule="nonzero"/></g></svg>