<svg xmlns="http://www.w3.org/2000/svg" xmlns:xlink="http://www.w3.org/1999/xlink" width="800" zoomAndPan="magnify" viewBox="0 0 600 599.999999" height="800" preserveAspectRatio="xMidYMid meet" version="1.0"><defs><clipPath id="04ae6195b2"><path d="M 12.511719 127 L 590 127 L 590 475 L 12.511719 475 Z M 12.511719 127 " clip-rule="nonzero"/></clipPath></defs><g clip-path="url(#04ae6195b2)"><path fill="#cefafe" d="M 589.941406 214.636719 C 551.769531 211.457031 479.683594 276.125 479.683594 276.125 C 447.878906 241.140625 384.269531 211.457031 384.269531 211.457031 L 443.636719 163.75 L 404.414062 143.109375 C 295.214844 93.847656 248.570312 173.292969 248.570312 173.292969 C 138.46875 171.089844 62.417969 240.546875 26.046875 283.488281 C 17.867188 293.167969 13.214844 305.332031 12.84375 318 C 12.472656 330.667969 16.410156 343.082031 24.007812 353.222656 C 107.414062 465.316406 260.230469 457.410156 260.230469 457.410156 C 395.929688 498.757812 441.515625 451.546875 441.515625 451.546875 C 421.371094 449.921875 380.027344 423.488281 380.027344 423.488281 C 409.710938 417.125 481.800781 355.636719 481.800781 355.636719 C 514.132812 381.285156 550.742188 401.023438 589.941406 413.941406 C 515.726562 327.011719 589.941406 214.636719 589.941406 214.636719 Z M 589.941406 214.636719 " fill-opacity="1" fill-rule="nonzero"/></g></svg>