<svg xmlns="http://www.w3.org/2000/svg" xmlns:xlink="http://www.w3.org/1999/xlink" width="800" zoomAndPan="magnify" viewBox="0 0 600 599.999999" height="800" preserveAspectRatio="xMidYMid meet" version="1.0"><defs><clipPath id="1c0cd9083e"><path d="M 60 25.714844 L 540 25.714844 L 540 573.964844 L 60 573.964844 Z M 60 25.714844 " clip-rule="nonzero"/></clipPath></defs><g clip-path="url(#1c0cd9083e)"><path fill="#41602c" d="M 419.976562 67.996094 C 361.3125 66.851562 315.601562 36.375 299.980469 25.710938 C 284.363281 36.375 238.652344 66.851562 179.984375 67.996094 C 115.609375 69.519531 75.226562 53.898438 59.988281 43.613281 L 59.988281 253.128906 C 59.988281 385.699219 162.84375 535.40625 299.980469 574.261719 C 368.550781 554.835938 428.738281 507.597656 471.40625 448.933594 C 514.070312 390.269531 539.972656 319.414062 539.972656 253.128906 L 539.972656 43.613281 C 524.734375 53.898438 484.355469 69.519531 419.976562 67.996094 Z M 514.070312 253.128906 C 514.070312 312.175781 490.832031 378.078125 450.453125 433.695312 C 410.074219 489.3125 356.742188 529.3125 299.980469 547.597656 C 242.839844 529.691406 189.890625 489.3125 149.511719 434.078125 C 109.132812 378.839844 85.894531 312.175781 85.894531 253.128906 L 85.894531 82.46875 C 113.703125 90.46875 142.652344 94.277344 171.605469 93.898438 L 180.75 93.898438 C 220.746094 92.753906 261.507812 79.804688 299.980469 56.1875 C 338.457031 79.804688 379.21875 92.753906 419.214844 93.515625 L 428.359375 93.515625 C 457.308594 93.898438 486.261719 90.089844 514.070312 82.089844 Z M 488.546875 114.851562 L 488.546875 253.128906 C 488.546875 307.222656 467.214844 367.414062 429.882812 418.457031 C 394.457031 466.839844 348.742188 502.644531 299.980469 520.167969 C 251.222656 502.644531 205.507812 466.839844 170.082031 418.457031 C 132.75 367.414062 111.417969 306.84375 111.417969 253.128906 L 111.417969 114.851562 C 131.226562 118.277344 151.414062 119.800781 171.605469 119.800781 L 181.128906 119.800781 C 223.03125 118.277344 263.410156 106.851562 299.980469 86.28125 C 336.171875 106.851562 376.933594 118.277344 418.835938 119.800781 L 428.359375 119.800781 C 448.546875 119.800781 468.738281 117.898438 488.546875 114.851562 Z M 488.546875 114.851562 " fill-opacity="1" fill-rule="nonzero"/></g></svg>