<svg xmlns="http://www.w3.org/2000/svg" xmlns:xlink="http://www.w3.org/1999/xlink" width="800" zoomAndPan="magnify" viewBox="0 0 600 599.999999" height="800" preserveAspectRatio="xMidYMid meet" version="1.0"><path fill="#a2ffc1" d="M 299.96875 65.304688 L 329.195312 52.410156 C 329.195312 52.410156 372.507812 31.695312 414.875 59 C 457.246094 86.304688 484.550781 113.609375 514.679688 104.195312 C 514.679688 104.195312 495.851562 126.792969 459.128906 122.085938 C 459.128906 122.085938 488.320312 143.738281 509.03125 187.996094 C 529.746094 232.246094 565.523438 223.773438 565.523438 223.773438 C 565.523438 223.773438 550.460938 247.3125 516.566406 245.429688 C 516.566406 245.429688 566.46875 287.800781 511.859375 364.066406 C 457.246094 440.328125 451.597656 481.757812 451.597656 481.757812 C 451.597656 481.757812 441.242188 467.636719 442.183594 449.746094 C 442.183594 449.746094 421.46875 511.886719 356.5 536.371094 L 357.441406 506.242188 C 357.441406 506.242188 301.269531 568.277344 299.96875 564.644531 C 298.667969 568.277344 242.496094 506.242188 242.496094 506.242188 L 243.4375 536.371094 C 178.472656 511.886719 157.757812 449.746094 157.757812 449.746094 C 158.699219 467.636719 148.34375 481.757812 148.34375 481.757812 C 148.34375 481.757812 142.691406 440.328125 88.082031 364.066406 C 33.472656 287.800781 83.375 245.429688 83.375 245.429688 C 49.480469 247.3125 34.414062 223.773438 34.414062 223.773438 C 34.414062 223.773438 70.191406 232.246094 90.90625 187.996094 C 111.621094 143.738281 140.808594 122.085938 140.808594 122.085938 C 104.089844 126.792969 85.257812 104.195312 85.257812 104.195312 C 115.386719 113.609375 142.691406 86.304688 185.0625 59 C 227.433594 31.695312 270.742188 52.410156 270.742188 52.410156 Z M 354.070312 355.050781 C 330.589844 323.902344 269.347656 324.105469 245.867188 355.050781 C 246.109375 367.074219 248.847656 380.195312 255.152344 382.988281 C 261.449219 385.78125 276.140625 381.945312 283.667969 371.8125 C 283.667969 371.8125 282.902344 386.65625 275.539062 398.011719 C 284.515625 401.839844 291.828125 403.226562 299.96875 403.226562 C 308.113281 403.226562 315.425781 401.839844 324.398438 398.011719 C 317.039062 386.65625 316.269531 371.8125 316.269531 371.8125 C 323.796875 381.945312 338.488281 385.78125 344.789062 382.988281 C 351.089844 380.195312 353.832031 367.074219 354.070312 355.050781 Z M 262.570312 267.972656 L 337.371094 267.972656 C 337.371094 267.972656 337.761719 296.480469 304.277344 296.480469 C 304.277344 296.480469 321.421875 335.664062 354.347656 335.664062 C 404.972656 335.664062 390.820312 268.179688 366.84375 253.234375 C 365.25 252.40625 366.019531 252.722656 366.84375 253.234375 C 378.3125 259.195312 425.324219 281.078125 425.324219 239.421875 C 425.324219 191.980469 396.070312 201.464844 396.070312 201.464844 C 389.1875 202.789062 348 209.621094 332.695312 232.21875 C 332.695312 232.21875 322.902344 193.394531 375.488281 194.292969 C 394.910156 194.628906 397.78125 166.382812 397.78125 166.382812 C 397.78125 113.792969 299.742188 148.679688 299.742188 148.679688 C 299.742188 148.679688 202.160156 113.792969 202.160156 166.382812 C 202.160156 166.382812 205.03125 194.628906 224.449219 194.292969 C 277.039062 193.394531 267.242188 232.21875 267.242188 232.21875 C 251.9375 209.621094 210.753906 202.789062 203.871094 201.464844 C 203.871094 201.464844 174.613281 191.980469 174.613281 239.421875 C 174.613281 281.078125 221.625 259.195312 233.097656 253.234375 C 233.921875 252.722656 234.691406 252.40625 233.097656 253.234375 C 209.121094 268.179688 194.96875 335.664062 245.59375 335.664062 C 278.519531 335.664062 295.664062 296.480469 295.664062 296.480469 C 262.175781 296.480469 262.570312 267.972656 262.570312 267.972656 Z M 262.570312 267.972656 " fill-opacity="1" fill-rule="evenodd"/></svg>