<svg xmlns="http://www.w3.org/2000/svg" xmlns:xlink="http://www.w3.org/1999/xlink" width="800" zoomAndPan="magnify" viewBox="0 0 600 599.999999" height="800" preserveAspectRatio="xMidYMid meet" version="1.0"><defs><clipPath id="84440498f3"><path d="M 8 76.449219 L 581 76.449219 L 581 523 L 8 523 Z M 8 76.449219 " clip-rule="nonzero"/></clipPath></defs><g clip-path="url(#84440498f3)"><path fill="#b1caed" d="M 121.5625 351.550781 C 115.726562 343.589844 115.328125 338.679688 121.960938 331.644531 C 131.121094 321.691406 140.941406 312.136719 150.761719 302.714844 C 182.742188 272.191406 215.390625 242.464844 251.617188 216.984375 C 271.921875 202.785156 292.757812 189.382812 315.183594 178.5 C 322.882812 174.785156 331.242188 172 339.339844 169.078125 C 347.832031 166.160156 353.804688 160.984375 357.121094 152.488281 C 362.164062 139.484375 367.339844 126.480469 375.300781 114.800781 C 392.289062 89.453125 416.042969 76.449219 446.566406 76.847656 C 463.953125 77.113281 479.742188 82.289062 492.75 94.097656 C 498.984375 99.804688 506.285156 100.734375 513.980469 101.53125 C 533.226562 103.519531 552.335938 106.574219 570.914062 112.015625 C 574.363281 113.074219 577.550781 114.800781 580.867188 116.128906 C 580.734375 116.660156 580.734375 117.058594 580.601562 117.589844 C 574.761719 118.914062 569.054688 120.109375 563.21875 121.4375 C 544.636719 125.550781 525.925781 129.265625 507.480469 133.777344 C 503.367188 134.839844 499.382812 137.757812 496.066406 140.546875 C 483.726562 151.164062 477.089844 164.699219 476.957031 181.15625 C 476.957031 191.773438 477.222656 202.519531 476.957031 213.136719 C 475.894531 261.578125 459.171875 304.042969 427.324219 340.40625 C 399.585938 372.253906 364.15625 390.304688 322.617188 396.671875 C 319.300781 397.203125 315.980469 397.335938 312.664062 397.734375 C 307.222656 398.265625 304.4375 401.714844 305.761719 407.023438 C 306.292969 409.414062 307.355469 411.933594 308.816406 413.925781 C 326.199219 438.210938 343.585938 462.496094 360.96875 486.78125 C 362.296875 488.640625 364.023438 490.230469 365.480469 491.824219 C 369.199219 495.671875 373.710938 496.601562 379.019531 495.9375 C 386.847656 494.878906 394.941406 493.417969 402.773438 494.082031 C 412.59375 494.878906 419.492188 501.113281 424.140625 509.742188 C 424.535156 510.402344 424.535156 511.199219 425.066406 512.792969 C 415.511719 504.566406 405.691406 501.246094 393.75 507.21875 C 399.457031 510.667969 402.90625 515.179688 403.171875 522.480469 C 401.578125 521.152344 400.648438 520.222656 399.585938 519.296875 C 392.023438 512.660156 385.386719 511.863281 377.160156 517.304688 C 367.738281 523.542969 357.917969 522.082031 347.832031 519.957031 C 345.839844 519.5625 343.851562 519.03125 342.125 518.367188 C 334.03125 515.046875 325.667969 514.386719 317.042969 516.242188 C 310.671875 517.703125 304.570312 516.773438 298.464844 514.917969 C 292.226562 512.925781 285.855469 511.597656 279.222656 513.988281 C 280.546875 509.210938 286.121094 505.359375 292.625 505.09375 C 296.605469 504.960938 300.585938 505.492188 304.570312 505.625 C 308.152344 505.757812 312.398438 507.484375 315.054688 503.769531 C 317.441406 500.316406 315.582031 496.734375 313.859375 493.550781 C 304.304688 476.695312 294.882812 459.976562 284.929688 443.386719 C 277.761719 431.441406 269.667969 419.898438 262.5 407.820312 C 259.582031 402.910156 257.589844 397.203125 255.863281 391.628906 C 253.078125 382.472656 247.902344 376.5 238.214844 374.113281 C 232.507812 372.652344 226.933594 370 221.890625 366.945312 C 209.550781 359.515625 197.339844 359.648438 184.734375 366.28125 C 165.757812 376.367188 148.105469 388.578125 130.855469 401.316406 C 107.097656 418.703125 83.742188 436.75 60.121094 454.136719 C 55.210938 457.71875 49.371094 459.84375 44.0625 462.761719 C 43.664062 462.894531 43.265625 463.160156 42.867188 463.160156 C 38.753906 463.558594 34.242188 464.488281 31.324219 460.636719 C 28.269531 456.523438 30.261719 452.277344 32.648438 448.695312 C 35.570312 444.316406 39.019531 440.203125 42.601562 435.554688 C 37.425781 438.210938 32.914062 440.996094 28.003906 442.988281 C 24.554688 444.449219 20.574219 445.375 16.859375 445.507812 C 10.355469 445.773438 6.90625 440.597656 9.027344 434.496094 C 11.019531 428.523438 15.398438 424.277344 20.308594 420.824219 C 39.152344 407.554688 58.261719 394.550781 77.238281 381.410156 C 92.101562 371.722656 106.699219 361.769531 121.5625 351.550781 Z M 315.582031 273.519531 C 315.847656 273.917969 316.113281 274.449219 316.378906 274.847656 C 314.921875 276.441406 313.59375 278.296875 312 279.625 C 310.011719 281.21875 307.753906 282.410156 305.496094 283.472656 C 263.695312 304.308594 219.238281 314.792969 172.921875 316.648438 C 162.835938 317.046875 154.476562 318.375 147.308594 326.074219 C 142 331.644531 135.367188 335.894531 129.660156 341.070312 C 128.066406 342.394531 126.472656 345.714844 127.136719 347.039062 C 128.066406 348.765625 130.988281 350.09375 133.242188 350.359375 C 136.425781 350.890625 139.878906 350.492188 143.195312 350.226562 C 168.410156 348.898438 193.359375 345.582031 218.175781 340.9375 C 252.28125 334.566406 285.722656 325.941406 317.972656 312.933594 C 341.859375 303.246094 364.6875 291.832031 383.398438 273.785156 C 397.199219 260.515625 407.816406 245.121094 411.132812 225.878906 C 412.328125 218.84375 412.328125 211.679688 410.335938 206.636719 C 405.425781 210.882812 400.25 215.527344 394.941406 219.773438 C 379.550781 231.980469 361.765625 239.945312 343.453125 246.449219 C 300.585938 261.3125 256.660156 269.007812 211.671875 269.804688 C 210.480469 269.804688 209.019531 269.671875 208.222656 270.335938 C 203.445312 274.449219 198.800781 278.695312 193.757812 283.207031 C 235.296875 285.996094 275.636719 282.410156 315.582031 273.519531 Z M 346.371094 497.398438 C 331.640625 465.285156 307.886719 439.9375 286.917969 412.464844 C 284.929688 416.84375 286.652344 420.164062 288.644531 423.347656 C 299.394531 440.996094 310.011719 458.648438 321.15625 476.03125 C 325.402344 482.800781 330.710938 488.773438 335.753906 495.011719 C 338.144531 497.929688 341.59375 498.992188 346.371094 497.398438 Z M 346.371094 497.398438 " fill-opacity="1" fill-rule="nonzero"/></g></svg>